:SAMPLES-PER-SECOND 30
:FULLY-SPECIFIED
:DEGREES
509
root  -30.4561 34.5906 1.11093 -167.344 49.9512 -173.464
RightUpLeg  -6.46153 -1.88562 6.58352
RightLeg  8.62204 0.0417583 0.00471053
RightFoot  0.499199 0.00116511 0.165328
RightToes  -10.2129 -0.0338692 -0.0938642
Spine  -0.786355 3.75313 0.737337
Spine1  -1.4424 7.61642 2.1638
HEad  -61.0833 -13.451 5.8951
LeftShoulder1  -1.94126e-019 -3.10601e-018 -2.51263e-017
LeftArm  11.0887 17.4544 -79.8449
LeftForeArm  25.4439 -40.3136 -7.87237
LeftHand  -0.301191 -2.27126 4.76556
RightShoulder  -4.96962e-017 0 -2.36833e-017
RightArm  -10.6069 28.315 80.6849
RightForeArm  41.0091 26.9415 3.62234
RightHand  -0.195061 -3.29962 -10.1868
LeftUpLeg  -27.2527 1.98034 4.06864
LeftLeg  15.206 10.4017 2.10609
LeftFoot  13.5145 -0.299237 2.68664
LeftToes  -28.1452 1.34695e-006 1.12385e-007
510
root  -29.8799 34.2757 0.295282 -168.781 50.5598 -174.591
RightUpLeg  -9.49351 -3.49337 5.18545
RightLeg  19.0751 1.99337 0.547024
RightFoot  -5.09092 -0.0241935 -0.0062336
RightToes  -10.2909 -0.0341918 -0.0945564
Spine  -0.389071 3.91736 0.417145
Spine1  -0.698218 8.05011 1.4831
HEad  -60.4958 -13.3233 5.88626
LeftShoulder1  -1.94126e-019 -3.10601e-018 -2.51263e-017
LeftArm  8.64092 16.8403 -80.1959
LeftForeArm  26.3392 -38.8287 -7.36149
LeftHand  -0.34072 -1.90688 5.60548
RightShoulder  -4.96962e-017 0 -2.36833e-017
RightArm  -10.9221 30.3165 80.4726
RightForeArm  40.3985 27.3124 3.72167
RightHand  -0.131043 -4.22823 -11.6707
LeftUpLeg  -26.4856 -0.659916 3.75549
LeftLeg  12.991 11.3509 1.84604
LeftFoot  16.1151 -0.464073 3.43883
LeftToes  -22.7935 1.34695e-006 1.12385e-007
511
root  -29.3368 33.907 -0.632415 -171.837 50.2513 -176.924
RightUpLeg  -11.4044 -9.75191 2.42089
RightLeg  28.9132 6.01594 2.81924
RightFoot  -8.76312 -0.102414 -0.828503
RightToes  -14.0382 -0.0507755 -0.127246
Spine  0.361402 3.73539 -0.0180879
Spine1  0.706109 7.83874 0.531291
HEad  -60.2711 -13.3131 6.00728
LeftShoulder1  -1.94126e-019 -3.10601e-018 -2.51263e-017
LeftArm  6.05214 16.2189 -80.835
LeftForeArm  27.3556 -36.9431 -6.75517
LeftHand  -0.36988 -1.49334 6.40187
RightShoulder  -4.96962e-017 0 -2.36833e-017
RightArm  -11.5052 32.0683 80.2196
RightForeArm  40.4628 28.1441 3.88393
RightHand  -0.0432777 -5.14821 -12.9242
LeftUpLeg  -26.7816 -2.80863 1.75841
LeftLeg  19.0047 12.936 3.50732
LeftFoot  12.6271 -0.338447 3.21981
LeftToes  -13.2497 1.34695e-006 1.12385e-007
512
root  -28.9103 33.6758 -1.34529 -173.035 48.6373 -177.885
RightUpLeg  -14.6972 -15.4193 0.754034
RightLeg  38.9492 6.97177 4.88537
RightFoot  -6.91684 -0.0791118 -0.808009
RightToes  -26.7855 -0.122423 -0.229015
Spine  0.952506 3.36382 -0.207421
Spine1  1.80646 7.23067 0.0493836
HEad  -59.4644 -14.0043 6.16963
LeftShoulder1  -1.94126e-019 -3.10601e-018 -2.51263e-017
LeftArm  5.72287 14.8002 -81.444
LeftForeArm  26.2294 -33.9503 -6.01911
LeftHand  -0.368796 -1.05161 6.7841
RightShoulder  -4.96962e-017 0 -2.36833e-017
RightArm  -13.4204 33.1789 79.5914
RightForeArm  39.9663 28.7851 4.03722
RightHand  0.0177137 -5.70776 -13.0392
LeftUpLeg  -28.9819 -3.06318 0.308092
LeftLeg  26.2169 11.3918 4.68143
LeftFoot  8.49326 -0.144414 2.10624
LeftToes  -7.28043 1.34695e-006 1.12385e-007
513
root  -28.5891 33.5635 -1.88115 -172.227 48.3882 -177.887
RightUpLeg  -19.9373 -17.9453 0.645575
RightLeg  47.4727 4.53612 4.29553
RightFoot  -2.28239 -0.0104296 0.0172522
RightToes  -36.0929 -0.188048 -0.292005
Spine  1.19995 3.63858 -0.459661
Spine1  2.26098 7.81761 -0.485127
HEad  -58.2363 -15.1794 6.23106
LeftShoulder1  -1.94126e-019 -3.10601e-018 -2.51263e-017
LeftArm  6.50186 13.4367 -81.7163
LeftForeArm  25.6933 -31.8094 -5.51774
LeftHand  -0.343782 -1.18899 6.21093
RightShoulder  -4.96962e-017 0 -2.36833e-017
RightArm  -16.1135 33.0372 78.9123
RightForeArm  39.2578 29.4256 4.21193
RightHand  0.0277781 -5.85466 -11.8595
LeftUpLeg  -30.6075 -0.202242 -0.701901
LeftLeg  29.424 8.47191 4.05885
LeftFoot  5.65669 -0.0509113 1.19203
LeftToes  -3.93133 1.34695e-006 1.12385e-007
514
root  -28.3238 33.5875 -2.32898 -171.406 49.4631 -177.76
RightUpLeg  -23.9741 -17.3381 1.00529
RightLeg  50.2386 1.12588 1.13908
RightFoot  -1.59164 -0.00446287 0.271561
RightToes  -27.0275 -0.123997 -0.230785
Spine  1.68624 4.0839 -0.541724
Spine1  3.203 8.77933 -0.692466
HEad  -56.5321 -15.1333 5.46349
LeftShoulder1  -1.94126e-019 -3.10601e-018 -2.51263e-017
LeftArm  6.30596 12.4612 -82.3997
LeftForeArm  26.5788 -29.9698 -5.02685
LeftHand  -0.361326 -1.07967 6.62256
RightShoulder  -4.96962e-017 0 -2.36833e-017
RightArm  -15.9884 32.57 78.3817
RightForeArm  35.5898 28.9599 4.29261
RightHand  -0.0269774 -5.29923 -12.6837
LeftUpLeg  -30.9066 1.12113 -1.06174
LeftLeg  30.3885 8.38681 4.19221
LeftFoot  4.17154 -0.0288553 0.953837
LeftToes  -3.45502 1.34695e-006 1.12385e-007
515
root  -28.0679 33.7683 -2.63573 -170.632 49.9657 -177.48
RightUpLeg  -26.0068 -15.4072 1.54585
RightLeg  46.9905 -1.75566 -1.69374
RightFoot  -3.38394 -0.00248797 0.501462
RightToes  -22.6558 -0.096753 -0.197825
Spine  2.36796 4.10816 -0.512866
Spine1  4.50844 8.97277 -0.774408
HEad  -54.2875 -14.0673 4.52668
LeftShoulder1  -1.94126e-019 -3.10601e-018 -2.51263e-017
LeftArm  3.5511 12.1562 -83.245
LeftForeArm  29.1248 -28.412 -4.52411
LeftHand  -0.41282 -1.00111 7.63541
RightShoulder  -4.96962e-017 0 -2.36833e-017
RightArm  -15.6858 29.9939 78.0422
RightForeArm  30.9252 31.9313 5.21542
RightHand  -0.111504 -4.24567 -9.71804
LeftUpLeg  -29.9665 0.1564 -0.738611
LeftLeg  29.0548 9.82869 4.6241
LeftFoot  4.20698 -0.0342181 1.09316
LeftToes  -3.90268 1.34695e-006 1.12385e-007
516
root  -27.8398 34.0263 -2.77944 -168.8 49.8321 -176.813
RightUpLeg  -27.0489 -12.2533 2.26911
RightLeg  38.4235 -3.54553 -2.4764
RightFoot  -3.59897 0.00059494 0.611565
RightToes  -19.3866 -0.0780657 -0.171872
Spine  2.91824 3.81505 -0.477458
Spine1  5.56714 8.43861 -0.821705
HEad  -52.4206 -12.7009 3.8237
LeftShoulder1  -1.94126e-019 -3.10601e-018 -2.51263e-017
LeftArm  0.458446 12.4953 -83.6063
LeftForeArm  29.0448 -28.5123 -4.54711
LeftHand  -0.457264 -0.616286 8.95245
RightShoulder  -4.96962e-017 0 -2.36833e-017
RightArm  -14.1332 26.0949 78.2551
RightForeArm  28.179 37.3785 6.76435
RightHand  -0.211145 -2.68336 -8.63373
LeftUpLeg  -29.5397 -1.31457 0.106679
LeftLeg  26.6343 11.2062 4.70109
LeftFoot  5.32054 -0.0592715 1.43715
LeftToes  -5.36873 1.34695e-006 1.12385e-007
517
root  -27.64 34.2523 -2.79596 -166.286 49.3032 -176.234
RightUpLeg  -27.6234 -8.4395 2.51083
RightLeg  26.6315 -1.67604 -0.716082
RightFoot  0.680277 0.000868629 0.266934
RightToes  -19.736 -0.0799918 -0.174696
Spine  3.18521 3.48904 -0.393763
Spine1  6.09659 7.78999 -0.718041
HEad  -50.8766 -11.6326 2.8048
LeftShoulder1  -1.94126e-019 -3.10601e-018 -2.51263e-017
LeftArm  -2.23945 13.7516 -83.8214
LeftForeArm  26.8242 -30.035 -5.01387
LeftHand  -0.483708 -0.315948 9.93641
RightShoulder  -4.96962e-017 0 -2.36833e-017
RightArm  -12.6866 20.2755 78.7488
RightForeArm  27.5831 46.5538 9.75739
RightHand  -0.494727 -0.913458 -12.7867
LeftUpLeg  -30.0914 -1.82871 0.863931
LeftLeg  24.0667 11.3595 4.18261
LeftFoot  6.51901 -0.0869027 1.6874
LeftToes  -5.85998 1.34695e-006 1.12385e-007
518
root  -27.4885 34.3632 -2.75377 -163.97 48.0982 -176.279
RightUpLeg  -28.4922 -5.40471 2.05316
RightLeg  16.0908 3.69171 0.811363
RightFoot  9.36281 -0.0295043 0.869101
RightToes  -23.4856 -0.10173 -0.20424
Spine  3.41987 3.2015 -0.289265
Spine1  6.56179 7.24904 -0.611075
HEad  -48.9057 -11.2437 1.64772
LeftShoulder1  -1.94126e-019 -3.10601e-018 -2.51263e-017
LeftArm  -3.44649 14.576 -83.9537
LeftForeArm  24.6742 -31.8575 -5.56917
LeftHand  -0.494362 -0.0699248 10.5893
RightShoulder  -4.96962e-017 0 -2.36833e-017
RightArm  -13.2701 14.7892 79.37
RightForeArm  32.04 57.6709 14.8616
RightHand  -0.735861 -0.823033 -18.6267
LeftUpLeg  -31.3953 -2.23965 1.19248
LeftLeg  21.9225 10.8311 3.54072
LeftFoot  7.45858 -0.106438 1.79442
LeftToes  -6.79841 1.34695e-006 1.12385e-007
519
root  -27.2816 34.3649 -2.71608 -163.111 46.2384 -176.688
RightUpLeg  -28.8333 -4.84977 1.65985
RightLeg  11.3254 6.20525 0.832339
RightFoot  14.1729 -0.161677 1.79819
RightToes  -22.4579 -0.0955804 -0.196285
Spine  4.11453 2.99154 -0.0142386
Spine1  7.9512 6.91149 -0.259268
HEad  -46.7749 -11.4209 0.227152
LeftShoulder1  -1.94126e-019 -3.10601e-018 -2.51263e-017
LeftArm  -3.74993 14.0344 -84.2624
LeftForeArm  24.8085 -32.4878 -5.71337
LeftHand  -0.50993 0.0891152 11.2342
RightShoulder  -4.96962e-017 0 -2.36833e-017
RightArm  -15.4967 12.5317 79.5791
RightForeArm  44.9746 66.2118 20.8203
RightHand  -0.849952 -0.836581 -21.5342
LeftUpLeg  -32.14 -3.69505 1.56245
LeftLeg  21.0151 10.5237 3.2595
LeftFoot  7.73993 -0.11142 1.80852
LeftToes  -7.49751 1.34695e-006 1.12385e-007
520
root  -27.1044 34.2398 -2.64394 -162.965 44.067 -177.662
RightUpLeg  -29.6119 -6.52118 1.71461
RightLeg  12.025 5.4148 0.793873
RightFoot  12.2703 -0.0997327 1.42896
RightToes  -21.7946 -0.0916872 -0.191092
Spine  4.69137 2.66649 0.134765
Spine1  9.09727 6.30458 -0.114582
HEad  -43.8094 -11.7577 -1.21005
LeftShoulder1  -1.94126e-019 -3.10601e-018 -2.51263e-017
LeftArm  -4.03496 13.5962 -84.1229
LeftForeArm  24.9409 -33.2365 -5.89058
LeftHand  -0.525451 0.0107517 11.4126
RightShoulder  -4.96962e-017 0 -2.36833e-017
RightArm  -17.4416 12.9395 79.178
RightForeArm  54.0014 69.0489 23.3124
RightHand  -0.786716 -1.59928 -23.8492
LeftUpLeg  -33.5821 -6.40088 1.94019
LeftLeg  21.8398 10.9502 3.56177
LeftFoot  7.43578 -0.113686 1.82045
LeftToes  -8.23214 1.34695e-006 1.12385e-007
521
root  -26.9711 34.1263 -2.47974 -161.794 42.5159 -177.651
RightUpLeg  -31.1318 -7.36466 2.42038
RightLeg  12.7555 4.57974 0.731315
RightFoot  11.7782 -0.0732187 1.21526
RightToes  -19.9849 -0.0813745 -0.176701
Spine  5.08738 2.59138 0.378338
Spine1  9.90561 6.18879 0.236889
HEad  -41.4275 -11.6917 -2.14681
LeftShoulder1  -1.94126e-019 -3.10601e-018 -2.51263e-017
LeftArm  -5.17527 13.0827 -84.2943
LeftForeArm  25.344 -33.3283 -5.88621
LeftHand  -0.523879 -0.0390412 11.2786
RightShoulder  -4.96962e-017 0 -2.36833e-017
RightArm  -19.5175 12.9999 77.6117
RightForeArm  52.9861 68.8832 23.2022
RightHand  -0.579575 -2.28155 -21.3886
LeftUpLeg  -36.1073 -8.08331 2.98929
LeftLeg  23.9402 10.9896 4.0212
LeftFoot  6.95497 -0.109713 1.74844
LeftToes  -9.06732 1.34695e-006 1.12385e-007
